<svg height="512pt" viewBox="0 0 512.00075 512" width="512pt" xmlns="http://www.w3.org/2000/svg"><path d="m176 225.671875c5.519531 0 10-4.480469 10-10 0-5.578125-4.53125-10-10-10-5.519531 0-10 4.46875-10 10 0 5.570313 4.542969 10 10 10zm0 0"/><path d="m77.148438 333.558594c51.617187 40.207031 113.949218 72.113281 178.851562 72.113281 64.910156 0 127.246094-31.914063 178.851562-72.113281 45.3125-35.296875 73.730469-70.125 74.917969-71.59375 2.976563-3.667969 2.976563-8.921875 0-12.589844-1.1875-1.464844-29.601562-36.296875-74.917969-71.59375-51.617187-40.207031-113.949218-72.109375-178.851562-72.109375s-127.238281 31.90625-178.851562 72.109375c-45.3125 35.296875-73.730469 70.128906-74.917969 71.59375-2.972657 3.667969-2.972657 8.921875 0 12.589844 1.1875 1.46875 29.605469 36.296875 74.917969 71.59375zm12.644531-140.273438c39.675781-30.847656 100.71875-67.613281 166.207031-67.613281 65.492188 0 126.535156 36.769531 166.210938 67.613281 32.523437 25.289063 56.441406 50.871094 66.617187 62.386719-10.175781 11.511719-34.09375 37.097656-66.617187 62.382813-39.675782 30.84375-100.71875 67.617187-166.210938 67.617187-65.488281 0-126.53125-36.773437-166.207031-67.617187-32.53125-25.289063-56.449219-50.875-66.617188-62.382813 10.167969-11.515625 34.089844-37.097656 66.617188-62.386719zm0 0"/><path d="m256 355.671875c55.140625 0 100-44.859375 100-100s-44.859375-100-100-100c-22.359375 0-43.5 7.210937-61.140625 20.859375-4.367187 3.378906-5.167969 9.660156-1.789063 14.027344 3.382813 4.371094 9.660157 5.171875 14.027344 1.789062 14.105469-10.910156 31.011719-16.679687 48.902344-16.679687 44.109375 0 80 35.890625 80 80 0 44.113281-35.890625 80-80 80-46.328125 0-81-38.746094-79.992188-81.03125.128907-5.519531-4.238281-10.101563-9.761718-10.234375-5.53125-.105469-10.101563 4.238281-10.234375 9.761718-1.273438 53.589844 42.503906 101.507813 99.988281 101.507813zm0 0"/><path d="m306 255.671875c0-27.570313-22.429688-50-50-50s-50 22.429687-50 50 22.429688 50 50 50 50-22.429687 50-50zm-80 0c0-16.542969 13.457031-30 30-30s30 13.457031 30 30c0 16.539063-13.457031 30-30 30s-30-13.460937-30-30zm0 0"/><path d="m502 0h-100c-5.523438 0-10 4.476562-10 10s4.476562 10 10 10h90v89.671875c0 5.519531 4.476562 10 10 10s10-4.480469 10-10v-99.671875c0-5.523438-4.476562-10-10-10zm0 0"/><path d="m10 125.671875c5.523438 0 10-4.480469 10-10v-95.671875h95c5.523438 0 10-4.476562 10-10s-4.476562-10-10-10h-105c-5.523438 0-10 4.476562-10 10v105.671875c0 5.519531 4.476562 10 10 10zm0 0"/><path d="m126.371094 502c0-5.523438-4.476563-10-10-10h-96.371094v-95.328125c0-5.523437-4.476562-10-10-10s-10 4.476563-10 10v105.328125c0 5.523438 4.476562 10 10 10h106.371094c5.523437 0 10-4.476562 10-10zm0 0"/><path d="m502 386.039062c-5.523438 0-10 4.480469-10 10v95.960938h-96.371094c-5.519531 0-10 4.476562-10 10s4.480469 10 10 10h106.371094c5.523438 0 10-4.476562 10-10v-105.960938c0-5.519531-4.476562-10-10-10zm0 0"/></svg>